# xmcd
#
# Track frame offsets:
#	151
#	29350
#	58377
#	82038
#	126673
#	142588
#	167531
#	202670
#	229121
#	253898
#	269309
#	285474
#	300079
#
# Disc length: 4206
#
# Revision: 1
# Processed by: cddbd v1.5.1PL0 Copyright (c) Steve Scherf et al.
# Submitted via: EasyCDDAExtractor 4.6.0.1
# Normalized: r0:TDELIM( - )
#
DISCID=af106c0d
DTITLE=Various Artist - BMG
DYEAR=2001
DGENRE=Club
TTITLE0=Crystal Waters - Come On Down (SYB Club Mix)
TTITLE1=DJ Quicksilver vs. Shaggy - Boombastic (Remix)
TTITLE2=Pulsedrivers vs. George Kranz - Din Daa Daa (Extended Remix)
TTITLE3=Kings Of Tomarrow - Finally (Danny Tenaglia's Time Marches On Remix)
TTITLE4=Britney Spears - I'm A Slave 4 U (Miguel Mig's Petalpusher Radio Edit)
TTITLE5=Voodoo and Serano - Blood Is Pumpin' (Promix Remix)
TTITLE6=Cosmic Gate - Fire Wire (Klubdoctorz Mix)
TTITLE7=Mr. Cheeks - Lights Camera Action (Funkymix Remix)
TTITLE8=Fat Joe feat. R Kelly - We Thuggin' (Funkymix Remix)
TTITLE9=Fabulous - Young'N (Holla Back) (Radio Version)
TTITLE10=Toya - I Do!! (Radio Version)
TTITLE11=Jay-Z - Girls Girls Girls (Pop Edit)
TTITLE12=No Doubt - Hey Baby (Radio Version)
EXTD=
EXTT0=
EXTT1=
EXTT2=
EXTT3=
EXTT4=
EXTT5=
EXTT6=
EXTT7=
EXTT8=
EXTT9=
EXTT10=
EXTT11=
EXTT12=
PLAYORDER=
